<svg width="81" height="49" viewBox="0 0 81 49" fill="none" xmlns="http://www.w3.org/2000/svg">
<path d="M3.41716 46.512C2.52116 46.512 1.73716 46.2507 1.06516 45.728C0.393158 45.2053 0.0571582 44.0853 0.0571582 42.368C0.0571582 41.584 0.337158 40.3333 0.897158 38.616C1.45716 36.8987 2.20382 34.8827 3.13716 32.568C4.10783 30.216 5.19049 27.7333 6.38516 25.12C7.57982 22.5067 8.83049 19.912 10.1372 17.336C11.4438 14.76 12.7132 12.3707 13.9452 10.168C15.1772 7.96533 16.3158 6.09866 17.3612 4.568C18.4438 3 19.3212 1.95466 19.9932 1.432C20.9638 0.722664 21.9345 0.367997 22.9052 0.367997C23.4278 0.367997 23.9318 0.423998 24.4172 0.535998C24.9398 0.647999 25.3692 0.834666 25.7052 1.096C26.4892 1.58133 27.1798 2.51467 27.7772 3.896C28.4118 5.24 28.9718 6.864 29.4572 8.768C29.9798 10.672 30.4092 12.7253 30.7452 14.928C31.1185 17.0933 31.4358 19.24 31.6972 21.368C33.1158 21.1813 34.0865 21.088 34.6092 21.088C35.7292 21.088 36.7185 21.256 37.5772 21.592C38.4358 21.8907 38.8838 22.5253 38.9212 23.496C38.9958 24.4293 38.6972 25.2133 38.0252 25.848C37.3905 26.4827 36.5692 26.9493 35.5612 27.248C35.1132 27.3973 34.0305 27.64 32.3132 27.976C32.4252 29.88 32.4812 31.4853 32.4812 32.792C32.4812 36.1147 32.2945 38.6907 31.9212 40.52C31.5852 42.3493 31.1372 43.656 30.5772 44.44C30.0545 45.224 29.4945 45.6907 28.8972 45.84C28.3372 46.0267 27.8332 46.12 27.3852 46.12C27.3478 46.12 27.3105 46.12 27.2732 46.12C26.1905 46.12 25.3878 45.84 24.8652 45.28C24.3798 44.72 24.1372 43.7867 24.1372 42.48V38.504C24.1372 37.272 24.1185 35.8907 24.0812 34.36C24.0438 32.8293 23.9692 31.2053 23.8572 29.488C21.6545 29.8613 19.4518 30.2347 17.2492 30.608C15.0838 30.944 13.2172 31.2427 11.6492 31.504C10.9398 33.184 10.3238 34.696 9.80116 36.04C9.27849 37.3467 8.92383 38.3733 8.73716 39.12C8.17716 40.9493 7.65449 42.3867 7.16916 43.432C6.68383 44.44 6.21716 45.1493 5.76916 45.56C5.35849 46.008 4.96649 46.2693 4.59316 46.344C4.21983 46.456 3.82782 46.512 3.41716 46.512ZM14.7292 24.616C16.2972 24.2427 17.8092 23.9067 19.2652 23.608C20.7212 23.272 22.1025 22.9733 23.4092 22.712C23.2225 20.3973 22.9985 18.1387 22.7372 15.936C22.4758 13.7333 22.1772 11.7733 21.8412 10.056C20.8705 11.9227 19.7318 14.1627 18.4252 16.776C17.1558 19.352 15.9238 21.9653 14.7292 24.616ZM57.4974 15.096C55.7054 15.096 54.4361 14.9093 53.6894 14.536C52.9427 14.1627 52.4947 13.7147 52.3454 13.192C52.1961 12.6693 52.1214 12.2213 52.1214 11.848C52.1214 11.8107 52.1214 11.792 52.1214 11.792C52.1214 10.9707 52.4947 10.1867 53.2414 9.44C53.9881 8.656 55.0334 8.11467 56.3774 7.816C57.4974 7.592 58.8227 7.368 60.3534 7.144C61.9214 6.88266 63.5641 6.65867 65.2814 6.472C67.0361 6.248 68.7161 6.08 70.3214 5.968C71.9267 5.856 73.3454 5.8 74.5774 5.8C76.2201 5.8 77.4894 6.04266 78.3854 6.528C79.2814 6.976 79.8974 7.49867 80.2334 8.096C80.6067 8.69333 80.7934 9.19733 80.7934 9.608C80.7934 9.98133 80.7001 10.3547 80.5134 10.728C80.3267 11.1013 79.8601 11.4747 79.1134 11.848C78.4041 12.2213 77.2654 12.576 75.6974 12.912C74.1294 13.248 71.9641 13.5653 69.2014 13.864C68.9401 13.9013 68.6601 13.9387 68.3614 13.976C68.1001 15.5813 67.7827 17.504 67.4094 19.744C67.0361 21.9467 66.6254 24.2613 66.1774 26.688C65.7667 29.0773 65.3561 31.3733 64.9454 33.576C64.5721 35.7413 64.2361 37.5893 63.9374 39.12C65.4681 38.9707 66.8121 38.8587 67.9694 38.784C69.1641 38.7093 69.9667 38.672 70.3774 38.672C71.6841 38.672 72.5801 38.952 73.0654 39.512C73.5507 40.0347 73.7934 40.7253 73.7934 41.584C73.7934 41.92 73.1961 42.4427 72.0014 43.152C70.8067 43.8613 69.1454 44.6267 67.0174 45.448C64.9267 46.2693 62.5187 46.9973 59.7934 47.632C58.0014 48.0427 56.2281 48.36 54.4734 48.584C52.7187 48.808 51.4494 48.92 50.6654 48.92C49.1347 48.92 48.1454 48.64 47.6974 48.08C47.2867 47.52 47.0814 46.8107 47.0814 45.952C47.0814 45.2053 47.3054 44.44 47.7534 43.656C48.2387 42.872 48.9107 42.312 49.7694 41.976C50.6654 41.64 51.6547 41.3227 52.7374 41.024C53.8201 40.7253 54.9401 40.464 56.0974 40.24C56.1721 39.2693 56.3214 37.9813 56.5454 36.376C56.7694 34.7707 57.0121 33.016 57.2734 31.112C57.5721 29.1707 57.8707 27.2107 58.1694 25.232C58.5054 23.216 58.8227 21.3307 59.1214 19.576C59.4574 17.784 59.7374 16.2347 59.9614 14.928C58.8787 15.04 58.0574 15.096 57.4974 15.096Z" fill="#FED449"/>
</svg>
